<?xml version="1.0" standalone="no"?><?xml-stylesheet type="text/css" href="https://wps.processon.com/themes/default/wps/mind/icons/icons.css" ?><!DOCTYPE svg PUBLIC "-//W3C//DTD SVG 1.1//EN" "http://www.w3.org/Graphics/SVG/1.1/DTD/svg11.dtd"><svg xmlns="http://www.w3.org/2000/svg" xlink="http://www.w3.org/1999/xlink" id="mind-svg-view-con" version="1.1" width="1449.000013563368px" height="754.093746609158px" style="position: absolute; width: 1449px; height: 754.094px; transform-origin: 0px 0px;"><defs></defs><g id="svgbackgroundid"><defs></defs><rect x="0" y="0" width="1449.000013563368" height="754.093746609158" fill="#ffffff"></rect></g><g><defs><pattern patternUnits="userSpaceOnUse" id="pattern_mark_0" width="300" height="300"><text x="150" y="100" fill="rgb(235,235,235)" font-size="18" transform="rotate(-45, 150, 150)" style="dominant-baseline: middle; text-anchor: middle;"></text></pattern></defs><rect fill="url(#pattern_mark_0)" x="0" y="0" width="1449.000013563368" height="754.093746609158" id="rect_mark_0" pointer-events="none"></rect></g><g transform="translate(-9529.499986436631, -9564.500003390842)" id="sdjakdjak6"><defs></defs><g class="svg-topic-con" transform="translate(0.5,0.5)"><path part="left" sub="true" id="line_402161a29e30671a" d="M 10000.000027126736 9941.500013563367 C 10000.000027126736 9941.500013563367 9990.000027126736 9736.203135172525 9903.500027126736 9736.203135172525" stroke="#484848" fill="none" stroke-width="2"></path><path part="left" sub="true" id="line_f5a2bf7a991c1a38" d="M 10000.000027126736 9941.500013563367 C 10000.000027126736 9941.500013563367 9990.000027126736 9915.281273735893 9903.500027126736 9915.281273735893" stroke="#484848" fill="none" stroke-width="2"></path><path part="left" sub="true" id="line_62a8598c271a1788" d="M 10000.000027126736 9941.500013563367 C 10000.000027126736 9941.500013563367 9990.000027126736 10018.281290690104 9903.500027126736 10018.281290690104" stroke="#484848" fill="none" stroke-width="2"></path><path part="left" sub="true" id="line_01764e9f63d000b4" d="M 10000.000027126736 9941.500013563367 C 10000.000027126736 9941.500013563367 9990.000027126736 10172.56252034505 9903.500027126736 10172.56252034505" stroke="#484848" fill="none" stroke-width="2"></path><path part="right" sub="true" id="line_a0d5f4081bac7303" d="M 10000.000027126736 9941.500013563367 C 10000.000027126736 9941.500013563367 10010.000027126736 9941.468760172525 10096.499972873264 9941.468760172525" stroke="#484848" fill="none" stroke-width="2"></path></g><g class="svg-connection-con" transform="translate(0.5,0.5)"></g><g class="svg-freesums-con" transform="translate(0.5,0.5)"></g><g class="svg-freebos-con" transform="translate(0.5,0.5)"></g></g><g id="a0d5f4081bac7303"><rect x="566.9999864366318" y="358.3281283908419" rx="10px" ry="10px" width="124" height="37" style="fill: #EEEEEE; stroke:none;stroke-width:0px;"></rect><g><text text-anchor="start" align="top" anchor="start" font-size="14px" font-weight="normal" fill="rgba(13, 13, 13, 0.898)" style="font-size:14px;font-family:微软雅黑;color:#0D0D0DE5;font-style:normal;text-align:left;font-weight:normal;"><tspan x="607" y="382"><tspan dx="0">证书流水线</tspan></tspan></text></g><g><g transform="translate(582.0000271267361, 370.6093580457899) scale(0.015625)"><circle cx="512" cy="512" r="576" stroke="#ffffff" stroke-width="64" fill="#ffffff"></circle><path d="M1024 512c0 282.768-229.232 512-512 512C229.232 1024 0 794.768 0 512 0 229.232 229.232 0 512 0c282.768 0 512 229.232 512 512z m-249.104-137.648a31.984 31.984 0 1 0-45.792-44.704L439.456 626.208 278.896 461.808a32 32 0 0 0-45.792 44.72l183.456 187.84a32 32 0 0 0 45.792 0l312.544-320z" fill="rgb(0, 186, 74)"></path></g></g></g><g id="46e13935e62c8b42"><rect x="723.0000135633679" y="158.20310804578995" rx="1px" ry="1px" width="106" height="27" style="fill: transparent; stroke:none;stroke-width:0px;"></rect><g><text text-anchor="start" align="top" anchor="start" font-size="14px" font-weight="400" fill="rgba(13, 13, 13, 0.898)" style="font-size:14px;font-family:微软雅黑;color:#0D0D0DE5;font-style:normal;text-align:left;font-weight:400;"><tspan x="761" y="177"><tspan dx="0">证书申请</tspan></tspan></text></g><g><g transform="translate(736, 165.484371609158) scale(0.015625)"><circle cx="512" cy="512" r="576" stroke="#ffffff" stroke-width="64" fill="#ffffff"></circle><path d="M1024 512c0 282.768-229.232 512-512 512C229.232 1024 0 794.768 0 512 0 229.232 229.232 0 512 0c282.768 0 512 229.232 512 512z m-249.104-137.648a31.984 31.984 0 1 0-45.792-44.704L439.456 626.208 278.896 461.808a32 32 0 0 0-45.792 44.72l183.456 187.84a32 32 0 0 0 45.792 0l312.544-320z" fill="rgb(0, 186, 74)"></path></g></g></g><g id="b7824834043bbb38"><rect x="861.0000271267361" y="30" rx="1px" ry="1px" width="134" height="27" style="fill: transparent; stroke:none;stroke-width:0px;"></rect><g><text text-anchor="start" align="top" anchor="start" font-size="14px" font-weight="400" fill="rgba(13, 13, 13, 0.898)" style="font-size:14px;font-family:微软雅黑;color:#0D0D0DE5;font-style:normal;text-align:left;font-weight:400;"><tspan x="899" y="48"><tspan dx="0">免费证书申请</tspan></tspan></text></g><g><g transform="translate(874.0000135633679, 37.28124660915799) scale(0.015625)"><circle cx="512" cy="512" r="576" stroke="#ffffff" stroke-width="64" fill="#ffffff"></circle><path d="M1024 512c0 282.768-229.232 512-512 512C229.232 1024 0 794.768 0 512 0 229.232 229.232 0 512 0c282.768 0 512 229.232 512 512z m-249.104-137.648a31.984 31.984 0 1 0-45.792-44.704L439.456 626.208 278.896 461.808a32 32 0 0 0-45.792 44.72l183.456 187.84a32 32 0 0 0 45.792 0l312.544-320z" fill="rgb(0, 186, 74)"></path></g></g></g><g id="26b9492a7616fee1"><rect x="861.0000271267361" y="81.28124660915799" rx="1px" ry="1px" width="302" height="27" style="fill: transparent; stroke:none;stroke-width:0px;"></rect><g><text text-anchor="start" align="top" anchor="start" font-size="14px" font-weight="400" fill="rgba(13, 13, 13, 0.898)" style="font-size:14px;font-family:微软雅黑;color:#0D0D0DE5;font-style:normal;text-align:left;font-weight:400;"><tspan x="899" y="100"><tspan dx="0">多域名，泛域名到一个证书上；证书下载</tspan></tspan></text></g><g><g transform="translate(874.0000135633679, 88.56249321831595) scale(0.015625)"><circle cx="512" cy="512" r="576" stroke="#ffffff" stroke-width="64" fill="#ffffff"></circle><path d="M1024 512c0 282.768-229.232 512-512 512C229.232 1024 0 794.768 0 512 0 229.232 229.232 0 512 0c282.768 0 512 229.232 512 512z m-249.104-137.648a31.984 31.984 0 1 0-45.792-44.704L439.456 626.208 278.896 461.808a32 32 0 0 0-45.792 44.72l183.456 187.84a32 32 0 0 0 45.792 0l312.544-320z" fill="rgb(0, 186, 74)"></path></g></g></g><g id="700fc8508d0db44b"><rect x="861.0000271267361" y="132.56251017252603" rx="1px" ry="1px" width="295" height="27" style="fill: transparent; stroke:none;stroke-width:0px;"></rect><g><text text-anchor="start" align="top" anchor="start" font-size="14px" font-weight="400" fill="rgba(13, 13, 13, 0.898)" style="font-size:14px;font-family:微软雅黑;color:#0D0D0DE5;font-style:normal;text-align:left;font-weight:400;"><tspan x="899" y="151"><tspan dx="0">PEM、DER、PFX、JKS等多种证书格式</tspan></tspan></text></g><g><g transform="translate(874.0000135633679, 139.84373982747397) scale(0.015625)"><circle cx="512" cy="512" r="576" stroke="#ffffff" stroke-width="64" fill="#ffffff"></circle><path d="M1024 512c0 282.768-229.232 512-512 512C229.232 1024 0 794.768 0 512 0 229.232 229.232 0 512 0c282.768 0 512 229.232 512 512z m-249.104-137.648a31.984 31.984 0 1 0-45.792-44.704L439.456 626.208 278.896 461.808a32 32 0 0 0-45.792 44.72l183.456 187.84a32 32 0 0 0 45.792 0l312.544-320z" fill="rgb(0, 186, 74)"></path></g></g></g><g id="2ab2fd0ce04407d5"><rect x="861.0000271267361" y="183.84373982747397" rx="1px" ry="1px" width="229" height="27" style="fill: transparent; stroke:none;stroke-width:0px;"></rect><g><text text-anchor="start" align="top" anchor="start" font-size="14px" font-weight="400" fill="rgba(13, 13, 13, 0.898)" style="font-size:14px;font-family:微软雅黑;color:#0D0D0DE5;font-style:normal;text-align:left;font-weight:400;"><tspan x="899" y="202"><tspan dx="0">支持RSA、ECC多种签名算法</tspan></tspan></text></g><g><g transform="translate(874.0000135633679, 191.125003390842) scale(0.015625)"><circle cx="512" cy="512" r="576" stroke="#ffffff" stroke-width="64" fill="#ffffff"></circle><path d="M1024 512c0 282.768-229.232 512-512 512C229.232 1024 0 794.768 0 512 0 229.232 229.232 0 512 0c282.768 0 512 229.232 512 512z m-249.104-137.648a31.984 31.984 0 1 0-45.792-44.704L439.456 626.208 278.896 461.808a32 32 0 0 0-45.792 44.72l183.456 187.84a32 32 0 0 0 45.792 0l312.544-320z" fill="rgb(0, 186, 74)"></path></g></g></g><g id="e6460d41b84b05da"><rect x="861.0000271267361" y="235.125003390842" rx="1px" ry="1px" width="434" height="27" style="fill: transparent; stroke:none;stroke-width:0px;"></rect><g><text text-anchor="start" align="top" anchor="start" font-size="14px" font-weight="400" fill="rgba(13, 13, 13, 0.898)" style="font-size:14px;font-family:微软雅黑;color:#0D0D0DE5;font-style:normal;text-align:left;font-weight:400;"><tspan x="899" y="254"><tspan dx="0">支持DNS、CNAME、HTTP等多种方式，支持所有域名服务商</tspan></tspan></text></g><g><g transform="translate(874.0000135633679, 242.40623304578995) scale(0.015625)"><circle cx="512" cy="512" r="576" stroke="#ffffff" stroke-width="64" fill="#ffffff"></circle><path d="M1024 512c0 282.768-229.232 512-512 512C229.232 1024 0 794.768 0 512 0 229.232 229.232 0 512 0c282.768 0 512 229.232 512 512zM526.352 233.744a15.936 15.936 0 0 0-28.704 0l-80.672 163.36c-2.336 4.8-6.832 8-12.048 8.8l-180.4 26.24c-13.12 1.92-18.368 18.08-8.864 27.2l130.528 127.36c3.776 3.68 5.504 8.96 4.608 14.08L320 780.464c-2.24 13.12 11.472 23.04 23.216 16.96l161.36-84.96c4.656-2.4 10.24-2.4 14.88 0l161.36 84.96c11.744 6.08 25.456-3.84 23.216-16.96l-30.816-179.68a15.888 15.888 0 0 1 4.608-14.08l130.528-127.36c9.504-9.12 4.256-25.28-8.864-27.2l-180.4-26.24a15.984 15.984 0 0 1-12.048-8.8l-80.672-163.36z" fill="rgb(248, 87, 103)"></path></g></g></g><g id="82fecc0849207a06"><rect x="861.0000271267361" y="286.4062330457899" rx="1px" ry="1px" width="148" height="27" style="fill: transparent; stroke:none;stroke-width:0px;"></rect><g><text text-anchor="start" align="top" anchor="start" font-size="14px" font-weight="400" fill="rgba(13, 13, 13, 0.898)" style="font-size:14px;font-family:微软雅黑;color:#0D0D0DE5;font-style:normal;text-align:left;font-weight:400;"><tspan x="899" y="305"><tspan dx="0">支持子域名托管</tspan></tspan></text></g><g><g transform="translate(874.0000135633679, 293.68749660915796) scale(0.015625)"><circle cx="512" cy="512" r="576" stroke="#ffffff" stroke-width="64" fill="#ffffff"></circle><path d="M1024 512c0 282.768-229.232 512-512 512C229.232 1024 0 794.768 0 512 0 229.232 229.232 0 512 0c282.768 0 512 229.232 512 512zM526.352 233.744a15.936 15.936 0 0 0-28.704 0l-80.672 163.36c-2.336 4.8-6.832 8-12.048 8.8l-180.4 26.24c-13.12 1.92-18.368 18.08-8.864 27.2l130.528 127.36c3.776 3.68 5.504 8.96 4.608 14.08L320 780.464c-2.24 13.12 11.472 23.04 23.216 16.96l161.36-84.96c4.656-2.4 10.24-2.4 14.88 0l161.36 84.96c11.744 6.08 25.456-3.84 23.216-16.96l-30.816-179.68a15.888 15.888 0 0 1 4.608-14.08l130.528-127.36c9.504-9.12 4.256-25.28-8.864-27.2l-180.4-26.24a15.984 15.984 0 0 1-12.048-8.8l-80.672-163.36z" fill="rgb(248, 87, 103)"></path></g></g></g><g id="eee917cc413a8855"><rect x="723.0000135633679" y="440.25002373589405" rx="1px" ry="1px" width="106" height="27" style="fill: transparent; stroke:none;stroke-width:0px;"></rect><g><text text-anchor="start" align="top" anchor="start" font-size="14px" font-weight="400" fill="rgba(13, 13, 13, 0.898)" style="font-size:14px;font-family:微软雅黑;color:#0D0D0DE5;font-style:normal;text-align:left;font-weight:400;"><tspan x="761" y="459"><tspan dx="0">证书部署</tspan></tspan></text></g><g><g transform="translate(736, 447.5312194824219) scale(0.015625)"><circle cx="512" cy="512" r="576" stroke="#ffffff" stroke-width="64" fill="#ffffff"></circle><path d="M1024 512c0 282.768-229.232 512-512 512C229.232 1024 0 794.768 0 512 0 229.232 229.232 0 512 0c282.768 0 512 229.232 512 512z m-249.104-137.648a31.984 31.984 0 1 0-45.792-44.704L439.456 626.208 278.896 461.808a32 32 0 0 0-45.792 44.72l183.456 187.84a32 32 0 0 0 45.792 0l312.544-320z" fill="rgb(0, 186, 74)"></path></g></g></g><g id="1cde76dd2d9c096f"><rect x="861.0000271267361" y="337.68749660915796" rx="1px" ry="1px" width="133" height="27" style="fill: transparent; stroke:none;stroke-width:0px;"></rect><g><text text-anchor="start" align="top" anchor="start" font-size="14px" font-weight="400" fill="rgba(13, 13, 13, 0.898)" style="font-size:14px;font-family:微软雅黑;color:#0D0D0DE5;font-style:normal;text-align:left;font-weight:400;"><tspan x="899" y="356"><tspan dx="0">70+部署插件</tspan></tspan></text></g><g><g transform="translate(874.0000135633679, 344.968760172526) scale(0.015625)"><circle cx="512" cy="512" r="576" stroke="#ffffff" stroke-width="64" fill="#ffffff"></circle><path d="M1024 512c0 282.768-229.232 512-512 512C229.232 1024 0 794.768 0 512 0 229.232 229.232 0 512 0c282.768 0 512 229.232 512 512z m-249.104-137.648a31.984 31.984 0 1 0-45.792-44.704L439.456 626.208 278.896 461.808a32 32 0 0 0-45.792 44.72l183.456 187.84a32 32 0 0 0 45.792 0l312.544-320z" fill="rgb(0, 186, 74)"></path></g></g></g><g id="60ea1ff0c1930715"><rect x="861.0000271267361" y="388.968760172526" rx="1px" ry="1px" width="162" height="27" style="fill: transparent; stroke:none;stroke-width:0px;"></rect><g><text text-anchor="start" align="top" anchor="start" font-size="14px" font-weight="400" fill="rgba(13, 13, 13, 0.898)" style="font-size:14px;font-family:微软雅黑;color:#0D0D0DE5;font-style:normal;text-align:left;font-weight:400;"><tspan x="899" y="407"><tspan dx="0">新增任务增量执行</tspan></tspan></text></g><g><g transform="translate(874.0000135633679, 396.25002373589405) scale(0.015625)"><circle cx="512" cy="512" r="576" stroke="#ffffff" stroke-width="64" fill="#ffffff"></circle><path d="M1024 512c0 282.768-229.232 512-512 512C229.232 1024 0 794.768 0 512 0 229.232 229.232 0 512 0c282.768 0 512 229.232 512 512zM526.352 233.744a15.936 15.936 0 0 0-28.704 0l-80.672 163.36c-2.336 4.8-6.832 8-12.048 8.8l-180.4 26.24c-13.12 1.92-18.368 18.08-8.864 27.2l130.528 127.36c3.776 3.68 5.504 8.96 4.608 14.08L320 780.464c-2.24 13.12 11.472 23.04 23.216 16.96l161.36-84.96c4.656-2.4 10.24-2.4 14.88 0l161.36 84.96c11.744 6.08 25.456-3.84 23.216-16.96l-30.816-179.68a15.888 15.888 0 0 1 4.608-14.08l130.528-127.36c9.504-9.12 4.256-25.28-8.864-27.2l-180.4-26.24a15.984 15.984 0 0 1-12.048-8.8l-80.672-163.36z" fill="rgb(248, 87, 103)"></path></g></g></g><g id="a918b60520769ef0"><rect x="861.0000271267361" y="440.25002373589405" rx="1px" ry="1px" width="162" height="27" style="fill: transparent; stroke:none;stroke-width:0px;"></rect><g><text text-anchor="start" align="top" anchor="start" font-size="14px" font-weight="400" fill="rgba(13, 13, 13, 0.898)" style="font-size:14px;font-family:微软雅黑;color:#0D0D0DE5;font-style:normal;text-align:left;font-weight:400;"><tspan x="899" y="459"><tspan dx="0">任务配置方便选择</tspan></tspan></text></g><g><g transform="translate(874.0000135633679, 447.5312194824219) scale(0.015625)"><circle cx="512" cy="512" r="576" stroke="#ffffff" stroke-width="64" fill="#ffffff"></circle><path d="M1024 512c0 282.768-229.232 512-512 512C229.232 1024 0 794.768 0 512 0 229.232 229.232 0 512 0c282.768 0 512 229.232 512 512zM526.352 233.744a15.936 15.936 0 0 0-28.704 0l-80.672 163.36c-2.336 4.8-6.832 8-12.048 8.8l-180.4 26.24c-13.12 1.92-18.368 18.08-8.864 27.2l130.528 127.36c3.776 3.68 5.504 8.96 4.608 14.08L320 780.464c-2.24 13.12 11.472 23.04 23.216 16.96l161.36-84.96c4.656-2.4 10.24-2.4 14.88 0l161.36 84.96c11.744 6.08 25.456-3.84 23.216-16.96l-30.816-179.68a15.888 15.888 0 0 1 4.608-14.08l130.528-127.36c9.504-9.12 4.256-25.28-8.864-27.2l-180.4-26.24a15.984 15.984 0 0 1-12.048-8.8l-80.672-163.36z" fill="rgb(248, 87, 103)"></path></g></g></g><g id="7daa4c1e80c98f7d"><rect x="1055.00006781684" y="440.375010172526" rx="1px" ry="1px" width="122" height="27" style="fill: transparent; stroke:none;stroke-width:0px;"></rect><g><text text-anchor="start" align="top" anchor="start" font-size="14px" font-weight="400" fill="rgba(13, 13, 13, 0.898)" style="font-size:14px;font-family:微软雅黑;color:#0D0D0DE5;font-style:normal;text-align:left;font-weight:400;"><tspan x="1067" y="459"><tspan dx="0">直接下拉框选择</tspan></tspan></text></g></g><g id="9fecbe8efb52e970"><rect x="861.0000271267361" y="491.5312194824219" rx="1px" ry="1px" width="302" height="27" style="fill: transparent; stroke:none;stroke-width:0px;"></rect><g><text text-anchor="start" align="top" anchor="start" font-size="14px" font-weight="400" fill="rgba(13, 13, 13, 0.898)" style="font-size:14px;font-family:微软雅黑;color:#0D0D0DE5;font-style:normal;text-align:left;font-weight:400;"><tspan x="899" y="510"><tspan dx="0">插件化，导入导出，插件商店（进行中）</tspan></tspan></text></g><g><g transform="translate(874.0000135633679, 498.8124830457899) scale(0.015625)"><circle cx="512" cy="512" r="576" stroke="#ffffff" stroke-width="64" fill="#ffffff"></circle><path d="M1024 512c0 282.768-229.232 512-512 512C229.232 1024 0 794.768 0 512 0 229.232 229.232 0 512 0c282.768 0 512 229.232 512 512zM526.352 233.744a15.936 15.936 0 0 0-28.704 0l-80.672 163.36c-2.336 4.8-6.832 8-12.048 8.8l-180.4 26.24c-13.12 1.92-18.368 18.08-8.864 27.2l130.528 127.36c3.776 3.68 5.504 8.96 4.608 14.08L320 780.464c-2.24 13.12 11.472 23.04 23.216 16.96l161.36-84.96c4.656-2.4 10.24-2.4 14.88 0l161.36 84.96c11.744 6.08 25.456-3.84 23.216-16.96l-30.816-179.68a15.888 15.888 0 0 1 4.608-14.08l130.528-127.36c9.504-9.12 4.256-25.28-8.864-27.2l-180.4-26.24a15.984 15.984 0 0 1-12.048-8.8l-80.672-163.36z" fill="rgb(248, 87, 103)"></path></g></g></g><g id="7032a4c6b2468e6c"><rect x="861.0000271267361" y="542.8124830457899" rx="1px" ry="1px" width="162" height="27" style="fill: transparent; stroke:none;stroke-width:0px;"></rect><g><text text-anchor="start" align="top" anchor="start" font-size="14px" font-weight="400" fill="rgba(13, 13, 13, 0.898)" style="font-size:14px;font-family:微软雅黑;color:#0D0D0DE5;font-style:normal;text-align:left;font-weight:400;"><tspan x="899" y="561"><tspan dx="0">商用证书托管部署</tspan></tspan></text></g><g><g transform="translate(874.0000135633679, 550.093746609158) scale(0.015625)"><circle cx="512" cy="512" r="576" stroke="#ffffff" stroke-width="64" fill="#ffffff"></circle><path d="M1024 512c0 282.768-229.232 512-512 512C229.232 1024 0 794.768 0 512 0 229.232 229.232 0 512 0c282.768 0 512 229.232 512 512zM526.352 233.744a15.936 15.936 0 0 0-28.704 0l-80.672 163.36c-2.336 4.8-6.832 8-12.048 8.8l-180.4 26.24c-13.12 1.92-18.368 18.08-8.864 27.2l130.528 127.36c3.776 3.68 5.504 8.96 4.608 14.08L320 780.464c-2.24 13.12 11.472 23.04 23.216 16.96l161.36-84.96c4.656-2.4 10.24-2.4 14.88 0l161.36 84.96c11.744 6.08 25.456-3.84 23.216-16.96l-30.816-179.68a15.888 15.888 0 0 1 4.608-14.08l130.528-127.36c9.504-9.12 4.256-25.28-8.864-27.2l-180.4-26.24a15.984 15.984 0 0 1-12.048-8.8l-80.672-163.36z" fill="rgb(248, 87, 103)"></path></g></g></g><g id="446c77654212f008"><rect x="1213.000013563368" y="440.375010172526" rx="1px" ry="1px" width="68" height="27" style="fill: transparent; stroke:none;stroke-width:0px;"></rect><g><text text-anchor="start" align="top" anchor="start" font-size="14px" font-weight="400" fill="rgba(13, 13, 13, 0.898)" style="font-size:14px;font-family:微软雅黑;color:#0D0D0DE5;font-style:normal;text-align:left;font-weight:400;"><tspan x="1219" y="459"><tspan dx="0">图标意义</tspan></tspan></text></g></g><g id="97c5d8fa46d713ab"><rect x="1313.000013563368" y="414.6093580457899" rx="1px" ry="1px" width="106" height="27" style="fill: transparent; stroke:none;stroke-width:0px;"></rect><g><text text-anchor="start" align="top" anchor="start" font-size="14px" font-weight="400" fill="rgba(13, 13, 13, 0.898)" style="font-size:14px;font-family:微软雅黑;color:#0D0D0DE5;font-style:normal;text-align:left;font-weight:400;"><tspan x="1351" y="433"><tspan dx="0">人无我有</tspan></tspan></text></g><g><g transform="translate(1326.00006781684, 421.89062160915796) scale(0.015625)"><circle cx="512" cy="512" r="576" stroke="#ffffff" stroke-width="64" fill="#ffffff"></circle><path d="M1024 512c0 282.768-229.232 512-512 512C229.232 1024 0 794.768 0 512 0 229.232 229.232 0 512 0c282.768 0 512 229.232 512 512zM526.352 233.744a15.936 15.936 0 0 0-28.704 0l-80.672 163.36c-2.336 4.8-6.832 8-12.048 8.8l-180.4 26.24c-13.12 1.92-18.368 18.08-8.864 27.2l130.528 127.36c3.776 3.68 5.504 8.96 4.608 14.08L320 780.464c-2.24 13.12 11.472 23.04 23.216 16.96l161.36-84.96c4.656-2.4 10.24-2.4 14.88 0l161.36 84.96c11.744 6.08 25.456-3.84 23.216-16.96l-30.816-179.68a15.888 15.888 0 0 1 4.608-14.08l130.528-127.36c9.504-9.12 4.256-25.28-8.864-27.2l-180.4-26.24a15.984 15.984 0 0 1-12.048-8.8l-80.672-163.36z" fill="rgb(248, 87, 103)"></path></g></g></g><g id="8dd73e027dbca98d"><rect x="1313.000013563368" y="465.89062160915796" rx="1px" ry="1px" width="106" height="27" style="fill: transparent; stroke:none;stroke-width:0px;"></rect><g><text text-anchor="start" align="top" anchor="start" font-size="14px" font-weight="400" fill="rgba(13, 13, 13, 0.898)" style="font-size:14px;font-family:微软雅黑;color:#0D0D0DE5;font-style:normal;text-align:left;font-weight:400;"><tspan x="1351" y="484"><tspan dx="0">人有我优</tspan></tspan></text></g><g><g transform="translate(1326.00006781684, 473.171885172526) scale(0.015625)"><circle cx="512" cy="512" r="576" stroke="#ffffff" stroke-width="64" fill="#ffffff"></circle><path d="M1024 512c0 282.768-229.232 512-512 512C229.232 1024 0 794.768 0 512 0 229.232 229.232 0 512 0c282.768 0 512 229.232 512 512z m-249.104-137.648a31.984 31.984 0 1 0-45.792-44.704L439.456 626.208 278.896 461.808a32 32 0 0 0-45.792 44.72l183.456 187.84a32 32 0 0 0 45.792 0l312.544-320z" fill="rgb(0, 186, 74)"></path></g></g></g><g id="d31b90d34354248f"><rect x="723.0000135633679" y="645.375010172526" rx="1px" ry="1px" width="78" height="27" style="fill: transparent; stroke:none;stroke-width:0px;"></rect><g><text text-anchor="start" align="top" anchor="start" font-size="14px" font-weight="400" fill="rgba(13, 13, 13, 0.898)" style="font-size:14px;font-family:微软雅黑;color:#0D0D0DE5;font-style:normal;text-align:left;font-weight:400;"><tspan x="761" y="664"><tspan dx="0">通知</tspan></tspan></text></g><g><g transform="translate(736, 652.656273735894) scale(0.015625)"><circle cx="512" cy="512" r="576" stroke="#ffffff" stroke-width="64" fill="#ffffff"></circle><path d="M1024 512c0 282.768-229.232 512-512 512C229.232 1024 0 794.768 0 512 0 229.232 229.232 0 512 0c282.768 0 512 229.232 512 512z m-249.104-137.648a31.984 31.984 0 1 0-45.792-44.704L439.456 626.208 278.896 461.808a32 32 0 0 0-45.792 44.72l183.456 187.84a32 32 0 0 0 45.792 0l312.544-320z" fill="rgb(0, 186, 74)"></path></g></g></g><g id="7234c7ecb346a63e"><rect x="833.0000135633679" y="594.093746609158" rx="1px" ry="1px" width="106" height="27" style="fill: transparent; stroke:none;stroke-width:0px;"></rect><g><text text-anchor="start" align="top" anchor="start" font-size="14px" font-weight="400" fill="rgba(13, 13, 13, 0.898)" style="font-size:14px;font-family:微软雅黑;color:#0D0D0DE5;font-style:normal;text-align:left;font-weight:400;"><tspan x="871" y="613"><tspan dx="0">邮件通知</tspan></tspan></text></g><g><g transform="translate(846, 601.375010172526) scale(0.015625)"><circle cx="512" cy="512" r="576" stroke="#ffffff" stroke-width="64" fill="#ffffff"></circle><path d="M1024 512c0 282.768-229.232 512-512 512C229.232 1024 0 794.768 0 512 0 229.232 229.232 0 512 0c282.768 0 512 229.232 512 512z m-249.104-137.648a31.984 31.984 0 1 0-45.792-44.704L439.456 626.208 278.896 461.808a32 32 0 0 0-45.792 44.72l183.456 187.84a32 32 0 0 0 45.792 0l312.544-320z" fill="rgb(0, 186, 74)"></path></g></g></g><g id="b244ef6a7032aca1"><rect x="833.0000135633679" y="645.375010172526" rx="1px" ry="1px" width="143" height="27" style="fill: transparent; stroke:none;stroke-width:0px;"></rect><g><text text-anchor="start" align="top" anchor="start" font-size="14px" font-weight="400" fill="rgba(13, 13, 13, 0.898)" style="font-size:14px;font-family:微软雅黑;color:#0D0D0DE5;font-style:normal;text-align:left;font-weight:400;"><tspan x="871" y="664"><tspan dx="0">Webhook通知</tspan></tspan></text></g><g><g transform="translate(846, 652.656273735894) scale(0.015625)"><circle cx="512" cy="512" r="576" stroke="#ffffff" stroke-width="64" fill="#ffffff"></circle><path d="M1024 512c0 282.768-229.232 512-512 512C229.232 1024 0 794.768 0 512 0 229.232 229.232 0 512 0c282.768 0 512 229.232 512 512z m-249.104-137.648a31.984 31.984 0 1 0-45.792-44.704L439.456 626.208 278.896 461.808a32 32 0 0 0-45.792 44.72l183.456 187.84a32 32 0 0 0 45.792 0l312.544-320z" fill="rgb(0, 186, 74)"></path></g></g></g><g id="9ff23d8b6eceb2f8"><rect x="833.0000135633679" y="696.656273735894" rx="1px" ry="1px" width="232" height="27" style="fill: transparent; stroke:none;stroke-width:0px;"></rect><g><text text-anchor="start" align="top" anchor="start" font-size="14px" font-weight="400" fill="rgba(13, 13, 13, 0.898)" style="font-size:14px;font-family:微软雅黑;color:#0D0D0DE5;font-style:normal;text-align:left;font-weight:400;"><tspan x="871" y="715"><tspan dx="0">其他钉钉、企微、飞书等通知</tspan></tspan></text></g><g><g transform="translate(846, 703.9374694824219) scale(0.015625)"><circle cx="512" cy="512" r="576" stroke="#ffffff" stroke-width="64" fill="#ffffff"></circle><path d="M1024 512c0 282.768-229.232 512-512 512C229.232 1024 0 794.768 0 512 0 229.232 229.232 0 512 0c282.768 0 512 229.232 512 512z m-249.104-137.648a31.984 31.984 0 1 0-45.792-44.704L439.456 626.208 278.896 461.808a32 32 0 0 0-45.792 44.72l183.456 187.84a32 32 0 0 0 45.792 0l312.544-320z" fill="rgb(0, 186, 74)"></path></g></g></g><g id="d81618321a5acd60"><rect x="139.99999999999994" y="517.4999830457899" rx="1px" ry="1px" width="106" height="27" style="fill: transparent; stroke:none;stroke-width:0px;"></rect><g><text text-anchor="start" align="top" anchor="start" font-size="14px" font-weight="400" fill="rgba(13, 13, 13, 0.898)" style="font-size:14px;font-family:微软雅黑;color:#0D0D0DE5;font-style:normal;text-align:left;font-weight:400;"><tspan x="178" y="536"><tspan dx="0">权限管理</tspan></tspan></text></g><g><g transform="translate(153.00002034505206, 524.781246609158) scale(0.015625)"><circle cx="512" cy="512" r="576" stroke="#ffffff" stroke-width="64" fill="#ffffff"></circle><path d="M1024 512c0 282.768-229.232 512-512 512C229.232 1024 0 794.768 0 512 0 229.232 229.232 0 512 0c282.768 0 512 229.232 512 512zM526.352 233.744a15.936 15.936 0 0 0-28.704 0l-80.672 163.36c-2.336 4.8-6.832 8-12.048 8.8l-180.4 26.24c-13.12 1.92-18.368 18.08-8.864 27.2l130.528 127.36c3.776 3.68 5.504 8.96 4.608 14.08L320 780.464c-2.24 13.12 11.472 23.04 23.216 16.96l161.36-84.96c4.656-2.4 10.24-2.4 14.88 0l161.36 84.96c11.744 6.08 25.456-3.84 23.216-16.96l-30.816-179.68a15.888 15.888 0 0 1 4.608-14.08l130.528-127.36c9.504-9.12 4.256-25.28-8.864-27.2l-180.4-26.24a15.984 15.984 0 0 1-12.048-8.8l-80.672-163.36z" fill="rgb(248, 87, 103)"></path></g></g></g><g id="f85ebc2e7988110f"><rect x="126.00002712673609" y="568.781246609158" rx="1px" ry="1px" width="120" height="27" style="fill: transparent; stroke:none;stroke-width:0px;"></rect><g><text text-anchor="start" align="top" anchor="start" font-size="14px" font-weight="400" fill="rgba(13, 13, 13, 0.898)" style="font-size:14px;font-family:微软雅黑;color:#0D0D0DE5;font-style:normal;text-align:left;font-weight:400;"><tspan x="164" y="587"><tspan dx="0">多用户使用</tspan></tspan></text></g><g><g transform="translate(139.00001356336804, 576.062510172526) scale(0.015625)"><circle cx="512" cy="512" r="576" stroke="#ffffff" stroke-width="64" fill="#ffffff"></circle><path d="M1024 512c0 282.768-229.232 512-512 512C229.232 1024 0 794.768 0 512 0 229.232 229.232 0 512 0c282.768 0 512 229.232 512 512zM526.352 233.744a15.936 15.936 0 0 0-28.704 0l-80.672 163.36c-2.336 4.8-6.832 8-12.048 8.8l-180.4 26.24c-13.12 1.92-18.368 18.08-8.864 27.2l130.528 127.36c3.776 3.68 5.504 8.96 4.608 14.08L320 780.464c-2.24 13.12 11.472 23.04 23.216 16.96l161.36-84.96c4.656-2.4 10.24-2.4 14.88 0l161.36 84.96c11.744 6.08 25.456-3.84 23.216-16.96l-30.816-179.68a15.888 15.888 0 0 1 4.608-14.08l130.528-127.36c9.504-9.12 4.256-25.28-8.864-27.2l-180.4-26.24a15.984 15.984 0 0 1-12.048-8.8l-80.672-163.36z" fill="rgb(248, 87, 103)"></path></g></g></g><g id="b4cfad9229538b68"><rect x="30" y="620.062510172526" rx="1px" ry="1px" width="78" height="27" style="fill: transparent; stroke:none;stroke-width:0px;"></rect><g><text text-anchor="start" align="top" anchor="start" font-size="14px" font-weight="400" fill="rgba(13, 13, 13, 0.898)" style="font-size:14px;font-family:微软雅黑;color:#0D0D0DE5;font-style:normal;text-align:left;font-weight:400;"><tspan x="68" y="638"><tspan dx="0">支付</tspan></tspan></text></g><g><g transform="translate(43.000020345052064, 627.343773735894) scale(0.015625)"><circle cx="512" cy="512" r="576" stroke="#ffffff" stroke-width="64" fill="#ffffff"></circle><path d="M1024 512c0 282.768-229.232 512-512 512C229.232 1024 0 794.768 0 512 0 229.232 229.232 0 512 0c282.768 0 512 229.232 512 512zM526.352 233.744a15.936 15.936 0 0 0-28.704 0l-80.672 163.36c-2.336 4.8-6.832 8-12.048 8.8l-180.4 26.24c-13.12 1.92-18.368 18.08-8.864 27.2l130.528 127.36c3.776 3.68 5.504 8.96 4.608 14.08L320 780.464c-2.24 13.12 11.472 23.04 23.216 16.96l161.36-84.96c4.656-2.4 10.24-2.4 14.88 0l161.36 84.96c11.744 6.08 25.456-3.84 23.216-16.96l-30.816-179.68a15.888 15.888 0 0 1 4.608-14.08l130.528-127.36c9.504-9.12 4.256-25.28-8.864-27.2l-180.4-26.24a15.984 15.984 0 0 1-12.048-8.8l-80.672-163.36z" fill="rgb(248, 87, 103)"></path></g></g></g><g id="85aa6680be86bb10"><rect x="30" y="671.343773735894" rx="1px" ry="1px" width="78" height="27" style="fill: transparent; stroke:none;stroke-width:0px;"></rect><g><text text-anchor="start" align="top" anchor="start" font-size="14px" font-weight="400" fill="rgba(13, 13, 13, 0.898)" style="font-size:14px;font-family:微软雅黑;color:#0D0D0DE5;font-style:normal;text-align:left;font-weight:400;"><tspan x="68" y="690"><tspan dx="0">订单</tspan></tspan></text></g><g><g transform="translate(43.000020345052064, 678.6249694824219) scale(0.015625)"><circle cx="512" cy="512" r="576" stroke="#ffffff" stroke-width="64" fill="#ffffff"></circle><path d="M1024 512c0 282.768-229.232 512-512 512C229.232 1024 0 794.768 0 512 0 229.232 229.232 0 512 0c282.768 0 512 229.232 512 512zM526.352 233.744a15.936 15.936 0 0 0-28.704 0l-80.672 163.36c-2.336 4.8-6.832 8-12.048 8.8l-180.4 26.24c-13.12 1.92-18.368 18.08-8.864 27.2l130.528 127.36c3.776 3.68 5.504 8.96 4.608 14.08L320 780.464c-2.24 13.12 11.472 23.04 23.216 16.96l161.36-84.96c4.656-2.4 10.24-2.4 14.88 0l161.36 84.96c11.744 6.08 25.456-3.84 23.216-16.96l-30.816-179.68a15.888 15.888 0 0 1 4.608-14.08l130.528-127.36c9.504-9.12 4.256-25.28-8.864-27.2l-180.4-26.24a15.984 15.984 0 0 1-12.048-8.8l-80.672-163.36z" fill="rgb(248, 87, 103)"></path></g></g></g><g id="0eaa4c55b1e407f9"><rect x="139.99999999999994" y="645.7031080457899" rx="1px" ry="1px" width="106" height="27" style="fill: transparent; stroke:none;stroke-width:0px;"></rect><g><text text-anchor="start" align="top" anchor="start" font-size="14px" font-weight="400" fill="rgba(13, 13, 13, 0.898)" style="font-size:14px;font-family:微软雅黑;color:#0D0D0DE5;font-style:normal;text-align:left;font-weight:400;"><tspan x="178" y="664"><tspan dx="0">用户套餐</tspan></tspan></text></g><g><g transform="translate(153.00002034505206, 652.984371609158) scale(0.015625)"><circle cx="512" cy="512" r="576" stroke="#ffffff" stroke-width="64" fill="#ffffff"></circle><path d="M1024 512c0 282.768-229.232 512-512 512C229.232 1024 0 794.768 0 512 0 229.232 229.232 0 512 0c282.768 0 512 229.232 512 512zM526.352 233.744a15.936 15.936 0 0 0-28.704 0l-80.672 163.36c-2.336 4.8-6.832 8-12.048 8.8l-180.4 26.24c-13.12 1.92-18.368 18.08-8.864 27.2l130.528 127.36c3.776 3.68 5.504 8.96 4.608 14.08L320 780.464c-2.24 13.12 11.472 23.04 23.216 16.96l161.36-84.96c4.656-2.4 10.24-2.4 14.88 0l161.36 84.96c11.744 6.08 25.456-3.84 23.216-16.96l-30.816-179.68a15.888 15.888 0 0 1 4.608-14.08l130.528-127.36c9.504-9.12 4.256-25.28-8.864-27.2l-180.4-26.24a15.984 15.984 0 0 1-12.048-8.8l-80.672-163.36z" fill="rgb(248, 87, 103)"></path></g></g></g><g id="01764e9f63d000b4"><rect x="278.000013563368" y="589.4218444824219" rx="10px" ry="10px" width="96" height="37" style="fill: #EEEEEE; stroke:none;stroke-width:0px;"></rect><g><text text-anchor="start" align="top" anchor="start" font-size="14px" font-weight="normal" fill="rgba(13, 13, 13, 0.898)" style="font-size:14px;font-family:微软雅黑;color:#0D0D0DE5;font-style:normal;text-align:left;font-weight:normal;"><tspan x="318" y="613"><tspan dx="0">多租户</tspan></tspan></text></g><g><g transform="translate(293.00002034505206, 601.7031080457899) scale(0.015625)"><circle cx="512" cy="512" r="576" stroke="#ffffff" stroke-width="64" fill="#ffffff"></circle><path d="M1024 512c0 282.768-229.232 512-512 512C229.232 1024 0 794.768 0 512 0 229.232 229.232 0 512 0c282.768 0 512 229.232 512 512zM526.352 233.744a15.936 15.936 0 0 0-28.704 0l-80.672 163.36c-2.336 4.8-6.832 8-12.048 8.8l-180.4 26.24c-13.12 1.92-18.368 18.08-8.864 27.2l130.528 127.36c3.776 3.68 5.504 8.96 4.608 14.08L320 780.464c-2.24 13.12 11.472 23.04 23.216 16.96l161.36-84.96c4.656-2.4 10.24-2.4 14.88 0l161.36 84.96c11.744 6.08 25.456-3.84 23.216-16.96l-30.816-179.68a15.888 15.888 0 0 1 4.608-14.08l130.528-127.36c9.504-9.12 4.256-25.28-8.864-27.2l-180.4-26.24a15.984 15.984 0 0 1-12.048-8.8l-80.672-163.36z" fill="rgb(248, 87, 103)"></path></g></g></g><g id="514af6c2f3320be6"><rect x="56.000027126736086" y="414.4999694824219" rx="1px" ry="1px" width="148" height="27" style="fill: transparent; stroke:none;stroke-width:0px;"></rect><g><text text-anchor="start" align="top" anchor="start" font-size="14px" font-weight="400" fill="rgba(13, 13, 13, 0.898)" style="font-size:14px;font-family:微软雅黑;color:#0D0D0DE5;font-style:normal;text-align:left;font-weight:400;"><tspan x="94" y="433"><tspan dx="0">站点可用性检查</tspan></tspan></text></g><g><g transform="translate(69.00001356336804, 421.7812330457899) scale(0.015625)"><circle cx="512" cy="512" r="576" stroke="#ffffff" stroke-width="64" fill="#ffffff"></circle><path d="M1024 512c0 282.768-229.232 512-512 512C229.232 1024 0 794.768 0 512 0 229.232 229.232 0 512 0c282.768 0 512 229.232 512 512zM526.352 233.744a15.936 15.936 0 0 0-28.704 0l-80.672 163.36c-2.336 4.8-6.832 8-12.048 8.8l-180.4 26.24c-13.12 1.92-18.368 18.08-8.864 27.2l130.528 127.36c3.776 3.68 5.504 8.96 4.608 14.08L320 780.464c-2.24 13.12 11.472 23.04 23.216 16.96l161.36-84.96c4.656-2.4 10.24-2.4 14.88 0l161.36 84.96c11.744 6.08 25.456-3.84 23.216-16.96l-30.816-179.68a15.888 15.888 0 0 1 4.608-14.08l130.528-127.36c9.504-9.12 4.256-25.28-8.864-27.2l-180.4-26.24a15.984 15.984 0 0 1-12.048-8.8l-80.672-163.36z" fill="rgb(248, 87, 103)"></path></g></g></g><g id="633d7d84abecec25"><rect x="70" y="465.7812330457899" rx="1px" ry="1px" width="134" height="27" style="fill: transparent; stroke:none;stroke-width:0px;"></rect><g><text text-anchor="start" align="top" anchor="start" font-size="14px" font-weight="400" fill="rgba(13, 13, 13, 0.898)" style="font-size:14px;font-family:微软雅黑;color:#0D0D0DE5;font-style:normal;text-align:left;font-weight:400;"><tspan x="108" y="484"><tspan dx="0">证书过期检查</tspan></tspan></text></g><g><g transform="translate(83.00002034505206, 473.06249660915796) scale(0.015625)"><circle cx="512" cy="512" r="576" stroke="#ffffff" stroke-width="64" fill="#ffffff"></circle><path d="M1024 512c0 282.768-229.232 512-512 512C229.232 1024 0 794.768 0 512 0 229.232 229.232 0 512 0c282.768 0 512 229.232 512 512zM526.352 233.744a15.936 15.936 0 0 0-28.704 0l-80.672 163.36c-2.336 4.8-6.832 8-12.048 8.8l-180.4 26.24c-13.12 1.92-18.368 18.08-8.864 27.2l130.528 127.36c3.776 3.68 5.504 8.96 4.608 14.08L320 780.464c-2.24 13.12 11.472 23.04 23.216 16.96l161.36-84.96c4.656-2.4 10.24-2.4 14.88 0l161.36 84.96c11.744 6.08 25.456-3.84 23.216-16.96l-30.816-179.68a15.888 15.888 0 0 1 4.608-14.08l130.528-127.36c9.504-9.12 4.256-25.28-8.864-27.2l-180.4-26.24a15.984 15.984 0 0 1-12.048-8.8l-80.672-163.36z" fill="rgb(248, 87, 103)"></path></g></g></g><g id="62a8598c271a1788"><rect x="236.0000271267361" y="435.140635172526" rx="10px" ry="10px" width="138" height="37" style="fill: #EEEEEE; stroke:none;stroke-width:0px;"></rect><g><text text-anchor="start" align="top" anchor="start" font-size="14px" font-weight="normal" fill="rgba(13, 13, 13, 0.898)" style="font-size:14px;font-family:微软雅黑;color:#0D0D0DE5;font-style:normal;text-align:left;font-weight:normal;"><tspan x="276" y="459"><tspan dx="0">站点证书监控</tspan></tspan></text></g><g><g transform="translate(250.99999999999994, 447.42189873589405) scale(0.015625)"><circle cx="512" cy="512" r="576" stroke="#ffffff" stroke-width="64" fill="#ffffff"></circle><path d="M1024 512c0 282.768-229.232 512-512 512C229.232 1024 0 794.768 0 512 0 229.232 229.232 0 512 0c282.768 0 512 229.232 512 512zM526.352 233.744a15.936 15.936 0 0 0-28.704 0l-80.672 163.36c-2.336 4.8-6.832 8-12.048 8.8l-180.4 26.24c-13.12 1.92-18.368 18.08-8.864 27.2l130.528 127.36c3.776 3.68 5.504 8.96 4.608 14.08L320 780.464c-2.24 13.12 11.472 23.04 23.216 16.96l161.36-84.96c4.656-2.4 10.24-2.4 14.88 0l161.36 84.96c11.744 6.08 25.456-3.84 23.216-16.96l-30.816-179.68a15.888 15.888 0 0 1 4.608-14.08l130.528-127.36c9.504-9.12 4.256-25.28-8.864-27.2l-180.4-26.24a15.984 15.984 0 0 1-12.048-8.8l-80.672-163.36z" fill="rgb(248, 87, 103)"></path></g></g></g><g id="0690af27852de585"><rect x="98.00001356336804" y="311.499989827474" rx="1px" ry="1px" width="134" height="27" style="fill: transparent; stroke:none;stroke-width:0px;"></rect><g><text text-anchor="start" align="top" anchor="start" font-size="14px" font-weight="400" fill="rgba(13, 13, 13, 0.898)" style="font-size:14px;font-family:微软雅黑;color:#0D0D0DE5;font-style:normal;text-align:left;font-weight:400;"><tspan x="136" y="330"><tspan dx="0">证书获取接口</tspan></tspan></text></g><g><g transform="translate(111, 318.78125339084204) scale(0.015625)"><circle cx="512" cy="512" r="576" stroke="#ffffff" stroke-width="64" fill="#ffffff"></circle><path d="M1024 512c0 282.768-229.232 512-512 512C229.232 1024 0 794.768 0 512 0 229.232 229.232 0 512 0c282.768 0 512 229.232 512 512zM526.352 233.744a15.936 15.936 0 0 0-28.704 0l-80.672 163.36c-2.336 4.8-6.832 8-12.048 8.8l-180.4 26.24c-13.12 1.92-18.368 18.08-8.864 27.2l130.528 127.36c3.776 3.68 5.504 8.96 4.608 14.08L320 780.464c-2.24 13.12 11.472 23.04 23.216 16.96l161.36-84.96c4.656-2.4 10.24-2.4 14.88 0l161.36 84.96c11.744 6.08 25.456-3.84 23.216-16.96l-30.816-179.68a15.888 15.888 0 0 1 4.608-14.08l130.528-127.36c9.504-9.12 4.256-25.28-8.864-27.2l-180.4-26.24a15.984 15.984 0 0 1-12.048-8.8l-80.672-163.36z" fill="rgb(248, 87, 103)"></path></g></g></g><g id="896e80a4bbf7a80d"><rect x="154.3594021267361" y="362.7812533908419" rx="1px" ry="1px" width="78" height="27" style="fill: transparent; stroke:none;stroke-width:0px;"></rect><g><text text-anchor="start" align="top" anchor="start" font-size="14px" font-weight="400" fill="rgba(13, 13, 13, 0.898)" style="font-size:14px;font-family:微软雅黑;color:#0D0D0DE5;font-style:normal;text-align:left;font-weight:400;"><tspan x="192" y="381"><tspan dx="0">SDK</tspan></tspan></text></g><g><g transform="translate(167.35938856336804, 370.0624830457899) scale(0.015625)"><circle cx="512" cy="512" r="576" stroke="#ffffff" stroke-width="64" fill="#ffffff"></circle><path d="M1024 512c0 282.768-229.232 512-512 512C229.232 1024 0 794.768 0 512 0 229.232 229.232 0 512 0c282.768 0 512 229.232 512 512zM526.352 233.744a15.936 15.936 0 0 0-28.704 0l-80.672 163.36c-2.336 4.8-6.832 8-12.048 8.8l-180.4 26.24c-13.12 1.92-18.368 18.08-8.864 27.2l130.528 127.36c3.776 3.68 5.504 8.96 4.608 14.08L320 780.464c-2.24 13.12 11.472 23.04 23.216 16.96l161.36-84.96c4.656-2.4 10.24-2.4 14.88 0l161.36 84.96c11.744 6.08 25.456-3.84 23.216-16.96l-30.816-179.68a15.888 15.888 0 0 1 4.608-14.08l130.528-127.36c9.504-9.12 4.256-25.28-8.864-27.2l-180.4-26.24a15.984 15.984 0 0 1-12.048-8.8l-80.672-163.36z" fill="rgb(248, 87, 103)"></path></g></g></g><g id="f5a2bf7a991c1a38"><rect x="264.000006781684" y="332.14062160915796" rx="10px" ry="10px" width="110" height="37" style="fill: #EEEEEE; stroke:none;stroke-width:0px;"></rect><g><text text-anchor="start" align="top" anchor="start" font-size="14px" font-weight="normal" fill="rgba(13, 13, 13, 0.898)" style="font-size:14px;font-family:微软雅黑;color:#0D0D0DE5;font-style:normal;text-align:left;font-weight:normal;"><tspan x="304" y="356"><tspan dx="0">开放接口</tspan></tspan></text></g><g><g transform="translate(279.000013563368, 344.421885172526) scale(0.015625)"><circle cx="512" cy="512" r="576" stroke="#ffffff" stroke-width="64" fill="#ffffff"></circle><path d="M1024 512c0 282.768-229.232 512-512 512C229.232 1024 0 794.768 0 512 0 229.232 229.232 0 512 0c282.768 0 512 229.232 512 512zM526.352 233.744a15.936 15.936 0 0 0-28.704 0l-80.672 163.36c-2.336 4.8-6.832 8-12.048 8.8l-180.4 26.24c-13.12 1.92-18.368 18.08-8.864 27.2l130.528 127.36c3.776 3.68 5.504 8.96 4.608 14.08L320 780.464c-2.24 13.12 11.472 23.04 23.216 16.96l161.36-84.96c4.656-2.4 10.24-2.4 14.88 0l161.36 84.96c11.744 6.08 25.456-3.84 23.216-16.96l-30.816-179.68a15.888 15.888 0 0 1 4.608-14.08l130.528-127.36c9.504-9.12 4.256-25.28-8.864-27.2l-180.4-26.24a15.984 15.984 0 0 1-12.048-8.8l-80.672-163.36z" fill="rgb(248, 87, 103)"></path></g></g></g><g id="ecd7c596a6ae3540"><rect x="112.00002034505206" y="55.49999660915799" rx="1px" ry="1px" width="120" height="27" style="fill: transparent; stroke:none;stroke-width:0px;"></rect><g><text text-anchor="start" align="top" anchor="start" font-size="14px" font-weight="400" fill="rgba(13, 13, 13, 0.898)" style="font-size:14px;font-family:微软雅黑;color:#0D0D0DE5;font-style:normal;text-align:left;font-weight:400;"><tspan x="150" y="74"><tspan dx="0">私有化部署</tspan></tspan></text></g><g><g transform="translate(125.00000678168402, 62.78124321831598) scale(0.015625)"><circle cx="512" cy="512" r="576" stroke="#ffffff" stroke-width="64" fill="#ffffff"></circle><path d="M1024 512c0 282.768-229.232 512-512 512C229.232 1024 0 794.768 0 512 0 229.232 229.232 0 512 0c282.768 0 512 229.232 512 512z m-249.104-137.648a31.984 31.984 0 1 0-45.792-44.704L439.456 626.208 278.896 461.808a32 32 0 0 0-45.792 44.72l183.456 187.84a32 32 0 0 0 45.792 0l312.544-320z" fill="rgb(0, 186, 74)"></path></g></g></g><g id="f2679db6f1f59787"><rect x="112.00002034505206" y="106.78124321831595" rx="1px" ry="1px" width="120" height="27" style="fill: transparent; stroke:none;stroke-width:0px;"></rect><g><text text-anchor="start" align="top" anchor="start" font-size="14px" font-weight="400" fill="rgba(13, 13, 13, 0.898)" style="font-size:14px;font-family:微软雅黑;color:#0D0D0DE5;font-style:normal;text-align:left;font-weight:400;"><tspan x="150" y="125"><tspan dx="0">密码防爆破</tspan></tspan></text></g><g><g transform="translate(125.00000678168402, 114.06248982747397) scale(0.015625)"><circle cx="512" cy="512" r="576" stroke="#ffffff" stroke-width="64" fill="#ffffff"></circle><path d="M1024 512c0 282.768-229.232 512-512 512C229.232 1024 0 794.768 0 512 0 229.232 229.232 0 512 0c282.768 0 512 229.232 512 512zM526.352 233.744a15.936 15.936 0 0 0-28.704 0l-80.672 163.36c-2.336 4.8-6.832 8-12.048 8.8l-180.4 26.24c-13.12 1.92-18.368 18.08-8.864 27.2l130.528 127.36c3.776 3.68 5.504 8.96 4.608 14.08L320 780.464c-2.24 13.12 11.472 23.04 23.216 16.96l161.36-84.96c4.656-2.4 10.24-2.4 14.88 0l161.36 84.96c11.744 6.08 25.456-3.84 23.216-16.96l-30.816-179.68a15.888 15.888 0 0 1 4.608-14.08l130.528-127.36c9.504-9.12 4.256-25.28-8.864-27.2l-180.4-26.24a15.984 15.984 0 0 1-12.048-8.8l-80.672-163.36z" fill="rgb(248, 87, 103)"></path></g></g></g><g id="8a38d9c42afa3867"><rect x="126.00002712673609" y="158.06248982747397" rx="1px" ry="1px" width="106" height="27" style="fill: transparent; stroke:none;stroke-width:0px;"></rect><g><text text-anchor="start" align="top" anchor="start" font-size="14px" font-weight="400" fill="rgba(13, 13, 13, 0.898)" style="font-size:14px;font-family:微软雅黑;color:#0D0D0DE5;font-style:normal;text-align:left;font-weight:400;"><tspan x="164" y="176"><tspan dx="0">站点隐藏</tspan></tspan></text></g><g><g transform="translate(139.00001356336804, 165.343753390842) scale(0.015625)"><circle cx="512" cy="512" r="576" stroke="#ffffff" stroke-width="64" fill="#ffffff"></circle><path d="M1024 512c0 282.768-229.232 512-512 512C229.232 1024 0 794.768 0 512 0 229.232 229.232 0 512 0c282.768 0 512 229.232 512 512zM526.352 233.744a15.936 15.936 0 0 0-28.704 0l-80.672 163.36c-2.336 4.8-6.832 8-12.048 8.8l-180.4 26.24c-13.12 1.92-18.368 18.08-8.864 27.2l130.528 127.36c3.776 3.68 5.504 8.96 4.608 14.08L320 780.464c-2.24 13.12 11.472 23.04 23.216 16.96l161.36-84.96c4.656-2.4 10.24-2.4 14.88 0l161.36 84.96c11.744 6.08 25.456-3.84 23.216-16.96l-30.816-179.68a15.888 15.888 0 0 1 4.608-14.08l130.528-127.36c9.504-9.12 4.256-25.28-8.864-27.2l-180.4-26.24a15.984 15.984 0 0 1-12.048-8.8l-80.672-163.36z" fill="rgb(248, 87, 103)"></path></g></g></g><g id="82e530506d0e42f7"><rect x="126.00002712673609" y="209.343753390842" rx="1px" ry="1px" width="106" height="27" style="fill: transparent; stroke:none;stroke-width:0px;"></rect><g><text text-anchor="start" align="top" anchor="start" font-size="14px" font-weight="400" fill="rgba(13, 13, 13, 0.898)" style="font-size:14px;font-family:微软雅黑;color:#0D0D0DE5;font-style:normal;text-align:left;font-weight:400;"><tspan x="164" y="228"><tspan dx="0">授权加密</tspan></tspan></text></g><g><g transform="translate(139.00001356336804, 216.62498304578995) scale(0.015625)"><circle cx="512" cy="512" r="576" stroke="#ffffff" stroke-width="64" fill="#ffffff"></circle><path d="M1024 512c0 282.768-229.232 512-512 512C229.232 1024 0 794.768 0 512 0 229.232 229.232 0 512 0c282.768 0 512 229.232 512 512zM526.352 233.744a15.936 15.936 0 0 0-28.704 0l-80.672 163.36c-2.336 4.8-6.832 8-12.048 8.8l-180.4 26.24c-13.12 1.92-18.368 18.08-8.864 27.2l130.528 127.36c3.776 3.68 5.504 8.96 4.608 14.08L320 780.464c-2.24 13.12 11.472 23.04 23.216 16.96l161.36-84.96c4.656-2.4 10.24-2.4 14.88 0l161.36 84.96c11.744 6.08 25.456-3.84 23.216-16.96l-30.816-179.68a15.888 15.888 0 0 1 4.608-14.08l130.528-127.36c9.504-9.12 4.256-25.28-8.864-27.2l-180.4-26.24a15.984 15.984 0 0 1-12.048-8.8l-80.672-163.36z" fill="rgb(248, 87, 103)"></path></g></g></g><g id="65cc8993956b6997"><rect x="126.00002712673609" y="260.6249830457899" rx="1px" ry="1px" width="106" height="27" style="fill: transparent; stroke:none;stroke-width:0px;"></rect><g><text text-anchor="start" align="top" anchor="start" font-size="14px" font-weight="400" fill="rgba(13, 13, 13, 0.898)" style="font-size:14px;font-family:微软雅黑;color:#0D0D0DE5;font-style:normal;text-align:left;font-weight:400;"><tspan x="164" y="279"><tspan dx="0">数据备份</tspan></tspan></text></g><g><g transform="translate(139.00001356336804, 267.90624660915796) scale(0.015625)"><circle cx="512" cy="512" r="576" stroke="#ffffff" stroke-width="64" fill="#ffffff"></circle><path d="M1024 512c0 282.768-229.232 512-512 512C229.232 1024 0 794.768 0 512 0 229.232 229.232 0 512 0c282.768 0 512 229.232 512 512zM526.352 233.744a15.936 15.936 0 0 0-28.704 0l-80.672 163.36c-2.336 4.8-6.832 8-12.048 8.8l-180.4 26.24c-13.12 1.92-18.368 18.08-8.864 27.2l130.528 127.36c3.776 3.68 5.504 8.96 4.608 14.08L320 780.464c-2.24 13.12 11.472 23.04 23.216 16.96l161.36-84.96c4.656-2.4 10.24-2.4 14.88 0l161.36 84.96c11.744 6.08 25.456-3.84 23.216-16.96l-30.816-179.68a15.888 15.888 0 0 1 4.608-14.08l130.528-127.36c9.504-9.12 4.256-25.28-8.864-27.2l-180.4-26.24a15.984 15.984 0 0 1-12.048-8.8l-80.672-163.36z" fill="rgb(248, 87, 103)"></path></g></g></g><g id="402161a29e30671a"><rect x="264.000006781684" y="153.06248982747397" rx="10px" ry="10px" width="110" height="37" style="fill: #EEEEEE; stroke:none;stroke-width:0px;"></rect><g><text text-anchor="start" align="top" anchor="start" font-size="14px" font-weight="normal" fill="rgba(13, 13, 13, 0.898)" style="font-size:14px;font-family:微软雅黑;color:#0D0D0DE5;font-style:normal;text-align:left;font-weight:normal;"><tspan x="304" y="176"><tspan dx="0">站点安全</tspan></tspan></text></g><g><g transform="translate(279.000013563368, 165.343753390842) scale(0.015625)"><circle cx="512" cy="512" r="576" stroke="#ffffff" stroke-width="64" fill="#ffffff"></circle><path d="M1024 512c0 282.768-229.232 512-512 512C229.232 1024 0 794.768 0 512 0 229.232 229.232 0 512 0c282.768 0 512 229.232 512 512zM526.352 233.744a15.936 15.936 0 0 0-28.704 0l-80.672 163.36c-2.336 4.8-6.832 8-12.048 8.8l-180.4 26.24c-13.12 1.92-18.368 18.08-8.864 27.2l130.528 127.36c3.776 3.68 5.504 8.96 4.608 14.08L320 780.464c-2.24 13.12 11.472 23.04 23.216 16.96l161.36-84.96c4.656-2.4 10.24-2.4 14.88 0l161.36 84.96c11.744 6.08 25.456-3.84 23.216-16.96l-30.816-179.68a15.888 15.888 0 0 1 4.608-14.08l130.528-127.36c9.504-9.12 4.256-25.28-8.864-27.2l-180.4-26.24a15.984 15.984 0 0 1-12.048-8.8l-80.672-163.36z" fill="rgb(248, 87, 103)"></path></g></g></g><g transform="translate(566.9999864366318, 30)" id="sdjakdjak0"><g id="subline_a0d5f4081bac7303" transform="translate(0.5, 0.5)"><path id="line_46e13935e62c8b42" d="M 124.00004069010416 346.968756781684 L 143 346.968756781684 L 143 145.84373643663193 A 4 4 0 0 1 147 141.84373643663193 L 156.00002712673611 141.84373643663193" p="a0d5f4081bac7303" stroke="#484848" fill="none" stroke-linecap="square" stroke-width="2"></path><path id="line_b7824834043bbb38" d="M 262.00005425347223 141.84373643663193 L 281 141.84373643663193 L 281 17.640619913736977 A 4 4 0 0 1 285 13.640619913736979 L 294.0000406901042 13.640619913736979" p="46e13935e62c8b42" stroke="#484848" fill="none" stroke-linecap="square" stroke-width="2"></path><path id="line_26b9492a7616fee1" d="M 262.00005425347223 141.84373643663193 L 281 141.84373643663193 L 281 68.921875 A 4 4 0 0 1 285 64.921875 L 294.0000406901042 64.921875" p="46e13935e62c8b42" stroke="#484848" fill="none" stroke-linecap="square" stroke-width="2"></path><path id="line_700fc8508d0db44b" d="M 262.00005425347223 141.84373643663193 L 281 141.84373643663193 L 281 120.20312160915798 A 4 4 0 0 1 285 116.20312160915798 L 294.0000406901042 116.20312160915798" p="46e13935e62c8b42" stroke="#484848" fill="none" stroke-linecap="square" stroke-width="2"></path><path id="line_2ab2fd0ce04407d5" d="M 262.00005425347223 141.84373643663193 L 281 141.84373643663193 L 281 163.48436821831598 A 4 4 0 0 0 285 167.48436821831598 L 294.0000406901042 167.48436821831598" p="46e13935e62c8b42" stroke="#484848" fill="none" stroke-linecap="square" stroke-width="2"></path><path id="line_e6460d41b84b05da" d="M 262.00005425347223 141.84373643663193 L 281 141.84373643663193 L 281 214.76563178168402 A 4 4 0 0 0 285 218.76563178168402 L 294.0000406901042 218.76563178168402" p="46e13935e62c8b42" stroke="#484848" fill="none" stroke-linecap="square" stroke-width="2"></path><path id="line_82fecc0849207a06" d="M 262.00005425347223 141.84373643663193 L 281 141.84373643663193 L 281 266.04686143663196 A 4 4 0 0 0 285 270.04686143663196 L 294.0000406901042 270.04686143663196" p="46e13935e62c8b42" stroke="#484848" fill="none" stroke-linecap="square" stroke-width="2"></path><path id="line_eee917cc413a8855" d="M 124.00004069010416 346.968756781684 L 143 346.968756781684 L 143 419.89063517252606 A 4 4 0 0 0 147 423.89063517252606 L 156.00002712673611 423.89063517252606" p="a0d5f4081bac7303" stroke="#484848" fill="none" stroke-linecap="square" stroke-width="2"></path><path id="line_1cde76dd2d9c096f" d="M 262.00005425347223 423.89063517252606 L 281 423.89063517252606 L 281 325.328125 A 4 4 0 0 1 285 321.328125 L 294.0000406901042 321.328125" p="eee917cc413a8855" stroke="#484848" fill="none" stroke-linecap="square" stroke-width="2"></path><path id="line_60ea1ff0c1930715" d="M 262.00005425347223 423.89063517252606 L 281 423.89063517252606 L 281 376.609371609158 A 4 4 0 0 1 285 372.609371609158 L 294.0000406901042 372.609371609158" p="eee917cc413a8855" stroke="#484848" fill="none" stroke-linecap="square" stroke-width="2"></path><path id="line_a918b60520769ef0" d="M 262.00005425347223 423.89063517252606 L 281 423.89063517252606 L 281 423.89063517252606 L 294.0000406901042 423.89063517252606" p="eee917cc413a8855" stroke="#484848" fill="none" stroke-linecap="square" stroke-width="2"></path><path id="line_7daa4c1e80c98f7d" d="M 456.0000271267361 423.89063517252606 L 475 423.89063517252606 L 475 423.88280232747394 L 488.0000813802083 423.88280232747394" p="a918b60520769ef0" stroke="#484848" fill="none" stroke-linecap="square" stroke-width="2"></path><path id="line_9fecbe8efb52e970" d="M 262.00005425347223 423.89063517252606 L 281 423.89063517252606 L 281 471.17186482747394 A 4 4 0 0 0 285 475.17186482747394 L 294.0000406901042 475.17186482747394" p="eee917cc413a8855" stroke="#484848" fill="none" stroke-linecap="square" stroke-width="2"></path><path id="line_7032a4c6b2468e6c" d="M 262.00005425347223 423.89063517252606 L 281 423.89063517252606 L 281 522.453128390842 A 4 4 0 0 0 285 526.453128390842 L 294.0000406901042 526.453128390842" p="eee917cc413a8855" stroke="#484848" fill="none" stroke-linecap="square" stroke-width="2"></path><path id="line_d31b90d34354248f" d="M 124.00004069010416 346.968756781684 L 143 346.968756781684 L 143 625.015621609158 A 4 4 0 0 0 147 629.015621609158 L 156.00002712673611 629.015621609158" p="a0d5f4081bac7303" stroke="#484848" fill="none" stroke-linecap="square" stroke-width="2"></path><path id="line_7234c7ecb346a63e" d="M 234.00004069010419 629.015621609158 L 253 629.015621609158 L 253 581.7343580457899 A 4 4 0 0 1 257 577.7343580457899 L 266.0000271267361 577.7343580457899" p="d31b90d34354248f" stroke="#484848" fill="none" stroke-linecap="square" stroke-width="2"></path><path id="line_b244ef6a7032aca1" d="M 234.00004069010419 629.015621609158 L 253 629.015621609158 L 253 629.015621609158 L 266.0000271267361 629.015621609158" p="d31b90d34354248f" stroke="#484848" fill="none" stroke-linecap="square" stroke-width="2"></path><path id="line_9ff23d8b6eceb2f8" d="M 234.00004069010419 629.015621609158 L 253 629.015621609158 L 253 676.296885172526 A 4 4 0 0 0 257 680.296885172526 L 266.0000271267361 680.296885172526" p="d31b90d34354248f" stroke="#484848" fill="none" stroke-linecap="square" stroke-width="2"></path><path id="line_97c5d8fa46d713ab" d="M 713.9999728732639 423.88280232747394 L 732 423.88280232747394 L 732 402.250003390842 A 4 4 0 0 1 736 398.250003390842 L 746.0000271267361 398.250003390842" p="446c77654212f008" stroke="#484848" fill="none" stroke-linecap="square" stroke-width="2"></path><path id="line_8dd73e027dbca98d" d="M 713.9999728732639 423.88280232747394 L 732 423.88280232747394 L 732 445.5312330457899 A 4 4 0 0 0 736 449.5312330457899 L 746.0000271267361 449.5312330457899" p="446c77654212f008" stroke="#484848" fill="none" stroke-linecap="square" stroke-width="2"></path></g><g transform="translate(0.5,0.5)"></g><g class="svg-summary-con" transform="translate(0.5,0.5)"><path id="sum_446c77654212f008" fill="none" stroke="#bf1e1b" stroke-width="1" d="M 628 311 C 645 315 620 418 642 423 M 628 535 C 645 531 620 428 642 423" stroke-linecap="round"></path></g><g class="svg-boundary-con" transform="translate(0.5,0.5)"></g></g><g transform="translate(30, 517.4999830457899)" id="sdjakdjak1"><g id="subline_01764e9f63d000b4" transform="translate(0.5, 0.5)"><path id="line_d81618321a5acd60" d="M 248 90.5625 L 230 90.5625 L 230 17.640625 A 4 4 0 0 0 226 13.640625 L 216 13.640625" p="01764e9f63d000b4" stroke="#484848" fill="none" stroke-linecap="square" stroke-width="2"></path><path id="line_f85ebc2e7988110f" d="M 248 90.5625 L 230 90.5625 L 230 68.921875 A 4 4 0 0 0 226 64.921875 L 216 64.921875" p="01764e9f63d000b4" stroke="#484848" fill="none" stroke-linecap="square" stroke-width="2"></path><path id="line_0eaa4c55b1e407f9" d="M 248 90.5625 L 230 90.5625 L 230 137.84375 A 4 4 0 0 1 226 141.84375 L 216 141.84375" p="01764e9f63d000b4" stroke="#484848" fill="none" stroke-linecap="square" stroke-width="2"></path><path id="line_b4cfad9229538b68" d="M 110 141.84375 L 92 141.84375 L 92 120.203125 A 4 4 0 0 0 88 116.203125 L 78 116.203125" p="0eaa4c55b1e407f9" stroke="#484848" fill="none" stroke-linecap="square" stroke-width="2"></path><path id="line_85aa6680be86bb10" d="M 110 141.84375 L 92 141.84375 L 92 163.484375 A 4 4 0 0 1 88 167.484375 L 78 167.484375" p="0eaa4c55b1e407f9" stroke="#484848" fill="none" stroke-linecap="square" stroke-width="2"></path></g><g transform="translate(0.5,0.5)"></g><g class="svg-summary-con" transform="translate(0.5,0.5)"></g><g class="svg-boundary-con" transform="translate(0.5,0.5)"></g></g><g transform="translate(56.000027126736086, 414.4999694824219)" id="sdjakdjak2"><g id="subline_62a8598c271a1788" transform="translate(0.5, 0.5)"><path id="line_514af6c2f3320be6" d="M 180 39.28125 L 162 39.28125 L 162 17.640625 A 4 4 0 0 0 158 13.640625 L 148 13.640625" p="62a8598c271a1788" stroke="#484848" fill="none" stroke-linecap="square" stroke-width="2"></path><path id="line_633d7d84abecec25" d="M 180 39.28125 L 162 39.28125 L 162 60.921875 A 4 4 0 0 1 158 64.921875 L 148 64.921875" p="62a8598c271a1788" stroke="#484848" fill="none" stroke-linecap="square" stroke-width="2"></path></g><g transform="translate(0.5,0.5)"></g><g class="svg-summary-con" transform="translate(0.5,0.5)"></g><g class="svg-boundary-con" transform="translate(0.5,0.5)"></g></g><g transform="translate(98.00001356336804, 311.499989827474)" id="sdjakdjak3"><g id="subline_f5a2bf7a991c1a38" transform="translate(0.5, 0.5)"><path id="line_0690af27852de585" d="M 166 39.28125 L 148 39.28125 L 148 17.640625 A 4 4 0 0 0 144 13.640625 L 134 13.640625" p="f5a2bf7a991c1a38" stroke="#484848" fill="none" stroke-linecap="square" stroke-width="2"></path><path id="line_896e80a4bbf7a80d" d="M 166 39.28125 L 148 39.28125 L 148 60.921875 A 4 4 0 0 1 144 64.921875 L 134 64.921875" p="f5a2bf7a991c1a38" stroke="#484848" fill="none" stroke-linecap="square" stroke-width="2"></path></g><g transform="translate(0.5,0.5)"></g><g class="svg-summary-con" transform="translate(0.5,0.5)"></g><g class="svg-boundary-con" transform="translate(0.5,0.5)"></g></g><g transform="translate(112.00002034505206, 55.49999660915799)" id="sdjakdjak4"><g id="subline_402161a29e30671a" transform="translate(0.5, 0.5)"><path id="line_ecd7c596a6ae3540" d="M 152 116.203125 L 134 116.203125 L 134 17.640625 A 4 4 0 0 0 130 13.640625 L 120 13.640625" p="402161a29e30671a" stroke="#484848" fill="none" stroke-linecap="square" stroke-width="2"></path><path id="line_f2679db6f1f59787" d="M 152 116.203125 L 134 116.203125 L 134 68.921875 A 4 4 0 0 0 130 64.921875 L 120 64.921875" p="402161a29e30671a" stroke="#484848" fill="none" stroke-linecap="square" stroke-width="2"></path><path id="line_8a38d9c42afa3867" d="M 152 116.203125 L 134 116.203125 L 134 116.203125 L 120 116.203125" p="402161a29e30671a" stroke="#484848" fill="none" stroke-linecap="square" stroke-width="2"></path><path id="line_82e530506d0e42f7" d="M 152 116.203125 L 134 116.203125 L 134 163.484375 A 4 4 0 0 1 130 167.484375 L 120 167.484375" p="402161a29e30671a" stroke="#484848" fill="none" stroke-linecap="square" stroke-width="2"></path><path id="line_65cc8993956b6997" d="M 152 116.203125 L 134 116.203125 L 134 214.765625 A 4 4 0 0 1 130 218.765625 L 120 218.765625" p="402161a29e30671a" stroke="#484848" fill="none" stroke-linecap="square" stroke-width="2"></path></g><g transform="translate(0.5,0.5)"></g><g class="svg-summary-con" transform="translate(0.5,0.5)"></g><g class="svg-boundary-con" transform="translate(0.5,0.5)"></g></g><g transform="translate(424.0000406901042, 348.500010172526)" id="sdjakdjak5"><g id="subline_root" transform="translate(0.5, 0.5)"></g><g transform="translate(0.5,0.5)"></g><g class="svg-summary-con" transform="translate(0.5,0.5)"></g><g class="svg-boundary-con" transform="translate(0.5,0.5)"></g></g><g id="root"><rect x="424.0000406901042" y="348.500010172526" rx="12px" ry="12px" width="93" height="57" style="fill: #00A59A; stroke:none;stroke-width:0px;"></rect><g><text text-anchor="start" align="top" anchor="start" font-size="20px" font-weight="bold" fill="rgb(255, 255, 255)" style="font-size:20px;font-family:微软雅黑;color:#fff;font-style:normal;text-align:left;font-weight:bold;"><tspan x="444" y="384"><tspan dx="0">Certd</tspan></tspan></text></g></g><g transform="translate(539.500006781684, 432.046873304579)"><text id="normal_brand" style="transform:rotate(-30deg);opacity: 0.09; color:#aaa; font-family: Microsoft Yahei;"><tspan font-size="72" dy="0" x="0"></tspan></text></g></svg>